<?xml version="1.0" standalone="no"?>
<!DOCTYPE svg PUBLIC "-//W3C//DTD SVG 20010904//EN"
 "http://www.w3.org/TR/2001/REC-SVG-20010904/DTD/svg10.dtd">
<svg version="1.0" xmlns="http://www.w3.org/2000/svg"
 width="512.000000pt" height="512.000000pt" viewBox="0 0 512.000000 512.000000"
 preserveAspectRatio="xMidYMid meet">
<metadata>
Created by potrace 1.14, written by Peter Selinger 2001-2017
</metadata>
<g transform="translate(0.000000,512.000000) scale(0.100000,-0.100000)"
fill="#000000" stroke="none">
<path d="M735 4146 c-198 -47 -363 -217 -404 -414 -8 -37 -11 -398 -11 -1170
0 -1229 -1 -1195 62 -1315 48 -91 146 -186 238 -230 41 -19 98 -40 125 -46 58
-12 3600 -11 3650 2 17 4 64 24 105 44 89 43 195 144 236 224 63 125 58 34 61
1294 3 1225 3 1211 -44 1314 -60 131 -174 233 -313 283 -63 22 -78 23 -437 26
-304 3 -373 1 -374 -10 0 -7 -2 -373 -3 -813 -2 -547 -6 -814 -14 -845 -6 -25
-13 -56 -15 -70 -16 -86 -84 -242 -152 -345 -48 -75 -211 -238 -286 -287 -121
-80 -286 -148 -397 -164 -26 -4 -56 -8 -67 -11 -26 -5 -234 -4 -260 1 -11 2
-40 7 -65 12 -25 4 -47 8 -50 9 -3 1 -21 5 -40 9 -37 8 -44 10 -130 47 -274
117 -493 357 -594 651 -60 176 -60 170 -60 1031 l-1 787 -355 -1 c-237 -1
-372 -5 -405 -13z"/>
<path d="M2029 4156 c-2 -2 -4 -352 -3 -778 1 -598 4 -785 14 -828 56 -238
249 -400 493 -415 231 -14 477 152 532 360 5 17 10 37 12 45 15 53 18 227 17
880 l0 735 -530 3 c-292 1 -532 0 -535 -2z"/>
</g>
</svg>
